<svg width="30" height="25" viewBox="0 0 30 25" fill="none" xmlns="http://www.w3.org/2000/svg">
<g id="Group">
<path id="Vector" d="M5.52321 6.79123L0 13.0794V15.6349V18.1874H5.53125H11.0625V21.3437V24.5L13.8161 24.4939L16.567 24.4848L16.575 18.7882L16.5804 13.0947H11.0571H5.53125L8.66518 9.51753C10.3902 7.55362 12.8705 4.71754 14.183 3.2202L16.567 0.5H13.808H11.0491L5.52321 6.79123Z" fill="white"/>
<path id="Vector_2" d="M18.9375 3.64125C18.9375 5.3673 18.9455 6.78229 18.9536 6.78229C18.9616 6.78229 20.2018 5.37339 21.7098 3.64735L24.4527 0.515453L24.4554 3.67174V6.82803L21.6964 9.96907L18.9375 13.1101V16.242V19.377H21.6964H24.4554V16.242V13.1101L27.2277 9.95383L30 6.79754V3.6504V0.500204H24.4687H18.9375V3.64125Z" fill="white"/>
<path id="Vector_3" d="M27.2277 16.2359L24.4688 19.377H27.2357H30V16.2359C30 14.5068 29.9973 13.0949 29.992 13.0949C29.9893 13.0949 28.7437 14.5068 27.2277 16.2359Z" fill="white"/>
</g>
</svg>
