<svg width="27" height="26" viewBox="0 0 27 26" fill="none" xmlns="http://www.w3.org/2000/svg">
<path d="M10.6562 10.5625C11.3293 10.5625 11.875 10.0168 11.875 9.34375C11.875 8.67065 11.3293 8.125 10.6562 8.125C9.98315 8.125 9.4375 8.67065 9.4375 9.34375C9.4375 10.0168 9.98315 10.5625 10.6562 10.5625Z" fill="white"/>
<path d="M21.625 3.25H5.375C4.94402 3.25 4.5307 3.4212 4.22595 3.72595C3.9212 4.0307 3.75 4.44402 3.75 4.875V21.125C3.75 21.556 3.9212 21.9693 4.22595 22.274C4.5307 22.5788 4.94402 22.75 5.375 22.75H21.625C22.056 22.75 22.4693 22.5788 22.774 22.274C23.0788 21.9693 23.25 21.556 23.25 21.125V4.875C23.25 4.44402 23.0788 4.0307 22.774 3.72595C22.4693 3.4212 22.056 3.25 21.625 3.25ZM18.7102 11.375C18.4042 11.0736 17.992 10.9046 17.5625 10.9046C17.133 10.9046 16.7208 11.0736 16.4148 11.375L11.875 15.9148L9.77266 13.8125C9.46673 13.5111 9.05449 13.3421 8.625 13.3421C8.19551 13.3421 7.78327 13.5111 7.47734 13.8125L5.375 15.9148V4.875H21.625V14.2898L18.7102 11.375Z" fill="white"/>
</svg>
