<svg width="32" height="32" viewBox="0 0 32 32" fill="none" xmlns="http://www.w3.org/2000/svg">
<path d="M30.9125 16.1C30.875 16 29.8125 13.65 27.4625 11.2875C24.325 8.1625 20.3625 6.5 16 6.5C11.6375 6.5 7.67501 8.1625 4.53751 11.2875C2.18751 13.65 1.12501 16 1.08751 16.1C1.0317 16.226 1.00287 16.3622 1.00287 16.5C1.00287 16.6378 1.0317 16.774 1.08751 16.9C1.12501 17 2.18751 19.35 4.53751 21.7125C7.67501 24.8375 11.6375 26.5 16 26.5C20.3625 26.5 24.325 24.8375 27.4625 21.7125C29.8125 19.35 30.875 17 30.9125 16.9C30.9683 16.774 30.9972 16.6378 30.9972 16.5C30.9972 16.3622 30.9683 16.226 30.9125 16.1ZM16 12C16.89 12 17.7601 12.2639 18.5001 12.7584C19.2401 13.2529 19.8169 13.9557 20.1575 14.7779C20.4981 15.6002 20.5872 16.505 20.4135 17.3779C20.2399 18.2508 19.8113 19.0526 19.182 19.682C18.5527 20.3113 17.7508 20.7399 16.8779 20.9135C16.005 21.0872 15.1002 20.9981 14.2779 20.6575C13.4557 20.3169 12.7529 19.7401 12.2584 19.0001C11.7639 18.26 11.5 17.39 11.5 16.5C11.5 15.3065 11.9741 14.1619 12.818 13.318C13.6619 12.4741 14.8065 12 16 12Z" fill="#304194"/>
</svg>
