<svg width="32" height="32" viewBox="0 0 32 32" fill="none" xmlns="http://www.w3.org/2000/svg">
<path d="M24.2722 16.4149L27.1347 21.3524C27.3136 21.6609 27.6432 21.8508 27.9998 21.8508C28.0159 21.8508 28.032 21.8504 28.048 21.8497C28.2076 21.842 28.3631 21.7961 28.5014 21.716C28.8099 21.5371 28.9998 21.2075 28.9998 20.8508C28.9998 20.8348 28.9994 20.8187 28.9987 20.8027C28.991 20.643 28.9451 20.4875 28.865 20.3493L26.0025 15.4118C25.8236 15.1033 25.494 14.9133 25.1373 14.9133C25.1213 14.9133 25.1052 14.9137 25.0892 14.9145C24.9295 14.9222 24.774 14.968 24.6358 15.0482C24.3272 15.2271 24.1373 15.5567 24.1373 15.9133C24.1373 15.9294 24.1377 15.9455 24.1385 15.9615C24.1462 16.1211 24.192 16.2766 24.2722 16.4149Z" fill="#1C1C1C"/>
<path d="M18.29 18.8368L19.1775 23.8743C19.2235 24.1355 19.3714 24.3677 19.5886 24.5199C19.7567 24.6377 19.957 24.7008 20.1623 24.7008L20.1669 24.7008C20.2235 24.7006 20.28 24.6955 20.3358 24.6857C20.8138 24.6015 21.1623 24.1862 21.1623 23.7008L21.1623 23.6976C21.1621 23.6405 21.1571 23.5836 21.1471 23.5273L20.2596 18.4898C20.2136 18.2286 20.0657 17.9964 19.8485 17.8443C19.6804 17.7265 19.4801 17.6633 19.2748 17.6633L19.2703 17.6633C19.2136 17.6636 19.1571 17.6687 19.1013 17.6785C18.8401 17.7245 18.6079 17.8724 18.4557 18.0896C18.338 18.2578 18.2748 18.4581 18.2748 18.6633L18.2748 18.6679C18.2751 18.7245 18.2801 18.781 18.29 18.8368Z" fill="#1C1C1C"/>
<path d="M11.7274 18.4777L10.8399 23.5275C10.8299 23.5847 10.8248 23.6426 10.8248 23.7006L10.8249 23.7097C10.8292 24.1917 11.1769 24.6021 11.6517 24.6855C11.7089 24.6956 11.7668 24.7006 11.8248 24.7006L11.8453 24.7004C12.0437 24.6964 12.2364 24.6334 12.3989 24.5195C12.616 24.3672 12.7638 24.1349 12.8097 23.8737L13.6972 18.8241C13.7072 18.767 13.7123 18.7087 13.7123 18.6506L13.7121 18.6302C13.7081 18.4318 13.6451 18.2391 13.5312 18.0766C13.3789 17.8594 13.1466 17.7116 12.8854 17.6657C12.8283 17.6557 12.7704 17.6506 12.7123 17.6506L12.7033 17.6507C12.2212 17.655 11.8109 18.0027 11.7274 18.4777Z" fill="#1C1C1C"/>
<path d="M5.98358 15.4137L3.12108 20.3762C3.03344 20.5281 2.9873 20.7004 2.9873 20.8758C2.9873 20.8944 2.98782 20.913 2.98886 20.9316C3.00769 21.2686 3.19526 21.5734 3.48765 21.7421C3.63958 21.8297 3.8119 21.8758 3.9873 21.8758L4.00571 21.8757C4.08706 21.8742 4.16792 21.8627 4.2465 21.8417C4.50266 21.7729 4.72101 21.6052 4.85353 21.3755L7.71603 16.413C7.80367 16.2611 7.8498 16.0887 7.8498 15.9133C7.8498 15.8947 7.84929 15.8761 7.84825 15.8575C7.82942 15.5205 7.64184 15.2158 7.34946 15.0471C7.19753 14.9595 7.02521 14.9133 6.84981 14.9133C6.8312 14.9133 6.81259 14.9138 6.79401 14.9149C6.457 14.9337 6.15224 15.1213 5.98358 15.4137Z" fill="#1C1C1C"/>
<path d="M28.7762 13.7436C28.7769 13.7426 28.7777 13.7417 28.7777 13.7417C28.9214 13.5637 28.9998 13.342 28.9998 13.1133L28.9998 13.1038C28.9995 13.0716 28.9976 13.0395 28.9942 13.0075C28.9662 12.7438 28.8345 12.502 28.6282 12.3353C28.4503 12.1917 28.2285 12.1133 27.9998 12.1133L27.9973 12.1133C27.696 12.114 27.4112 12.2506 27.2219 12.4849C27.2211 12.4858 27.2204 12.4867 27.2204 12.4867C25.3609 14.7884 22.9801 16.1666 22.9801 16.1666C19.8115 18.0008 15.9998 18.0008 15.9998 18.0008C12.1882 18.0008 9.01955 16.1666 9.01955 16.1666C6.63825 14.7881 4.77844 12.4858 4.77844 12.4858C4.65369 12.331 4.48564 12.2169 4.29574 12.1581C4.23378 12.1389 4.1701 12.1258 4.1056 12.1189C4.07046 12.1152 4.03515 12.1133 3.99982 12.1133C3.9867 12.1133 3.97359 12.1135 3.96048 12.1141C3.74545 12.1225 3.53889 12.2001 3.37148 12.3353C3.13643 12.5252 2.99982 12.8111 2.99982 13.1133C2.99982 13.1296 3.00022 13.146 3.00102 13.1623C3.0097 13.3393 3.06526 13.5108 3.16199 13.6592C3.18054 13.6877 3.20053 13.7152 3.22188 13.7416C5.31493 16.333 8.01758 17.8975 8.01758 17.8975C11.6511 20.0008 15.9998 20.0008 15.9998 20.0008C20.3486 20.0008 23.982 17.8975 23.982 17.8975C26.6837 16.3336 28.7762 13.7436 28.7762 13.7436Z" fill="#1C1C1C"/>
</svg>
