<svg width="32" height="32" viewBox="0 0 32 32" fill="none" xmlns="http://www.w3.org/2000/svg">
<path d="M26.4375 16.15C27.2893 15.4195 28.0718 14.6119 28.775 13.7375C28.8581 13.6362 28.9202 13.5193 28.9577 13.3937C28.9952 13.2682 29.0073 13.1364 28.9933 13.0061C28.9794 12.8758 28.9396 12.7495 28.8764 12.6348C28.8131 12.52 28.7277 12.4189 28.625 12.3375C28.5245 12.2537 28.4082 12.1907 28.2831 12.1522C28.158 12.1137 28.0265 12.1005 27.8962 12.1133C27.766 12.1261 27.6395 12.1647 27.5243 12.2268C27.4091 12.2888 27.3073 12.3732 27.225 12.475C26.4425 13.4505 25.549 14.3315 24.5625 15.1H24.5375C22.475 16.7 19.6625 17.9875 16 17.9875C12.9058 18.0173 9.89258 16.9996 7.45001 15.1H7.43751C6.451 14.3315 5.55746 13.4505 4.77501 12.475C4.69268 12.3732 4.59094 12.2888 4.47571 12.2268C4.36048 12.1647 4.23405 12.1261 4.10378 12.1133C3.97351 12.1005 3.84199 12.1137 3.71688 12.1522C3.59177 12.1907 3.47556 12.2537 3.37501 12.3375C3.27232 12.4189 3.18686 12.52 3.12363 12.6348C3.06039 12.7495 3.02063 12.8758 3.00667 13.0061C2.99271 13.1364 3.00482 13.2682 3.04231 13.3937C3.07979 13.5193 3.1419 13.6362 3.22501 13.7375C3.92824 14.6119 4.71073 15.4195 5.56251 16.15L3.12501 20.375C3.03739 20.5268 2.99118 20.6989 2.99103 20.8741C2.99087 21.0494 3.03677 21.2216 3.12412 21.3735C3.21147 21.5254 3.33721 21.6517 3.48874 21.7397C3.64027 21.8277 3.81227 21.8744 3.98751 21.875C4.16194 21.872 4.33271 21.8244 4.48364 21.7369C4.63457 21.6494 4.76067 21.5249 4.85001 21.375L7.16251 17.3625C8.51507 18.273 10.0048 18.9609 11.575 19.4L10.8375 23.525C10.7937 23.7866 10.8543 24.0549 11.0062 24.2723C11.1581 24.4897 11.3893 24.6388 11.65 24.6875H11.825C12.0604 24.6882 12.2884 24.6058 12.4691 24.4549C12.6497 24.304 12.7713 24.0942 12.8125 23.8625L13.525 19.8125C14.3445 19.9336 15.1716 19.9962 16 20C16.824 20.0009 17.6469 19.9424 18.4625 19.825L19.175 23.875C19.2162 24.1067 19.3378 24.3165 19.5184 24.4674C19.6991 24.6183 19.9271 24.7007 20.1625 24.7H20.3375C20.5982 24.6513 20.8294 24.5022 20.9813 24.2848C21.1332 24.0674 21.1938 23.7991 21.15 23.5375L20.425 19.425C21.991 18.9792 23.4762 18.2872 24.825 17.375L27.125 21.35C27.2135 21.5034 27.3412 21.6304 27.4949 21.7183C27.6486 21.8061 27.823 21.8516 28 21.85C28.1762 21.8514 28.3493 21.8038 28.5 21.7125C28.7281 21.5793 28.8943 21.3613 28.9622 21.106C29.0301 20.8507 28.9943 20.5789 28.8625 20.35L26.4375 16.15Z" fill="#304194"/>
</svg>
